<svg xmlns="http://www.w3.org/2000/svg" xmlns:xlink="http://www.w3.org/1999/xlink" version="1.1" x="0px" y="0px" viewBox="0 0 433.903 240.4675" enable-background="new 0 0 433.903 192.374" xml:space="preserve"><g><g><g><g><path d="M27.702,105.528c-1.119,0-1.784-0.061-1.964-0.08l0.21-1.988c0.364,0.04,36.85,3.111,86.583-51.979l0.546-0.604      l26.75,15.695l9.772,7.277l3.666,2.577c2.067-0.594,9.309-2.498,12.367-0.971c0.699,0.35,1.562,0.999,2.754,1.897      c4.633,3.488,14.273,10.746,35.371,16.331l0.113,0.037c0.169,0.067,16.95,6.718,21.537,7.442l-0.312,1.975      c-4.715-0.744-20.653-7.039-21.907-7.536c-21.436-5.683-31.274-13.09-36.005-16.651c-1.066-0.804-1.909-1.438-2.445-1.706      c-2.013-1.007-8.037,0.224-11.361,1.234l-0.467,0.142l-4.483-3.151l-9.75-7.261l-25.208-14.783      C69.217,102.17,36.004,105.528,27.702,105.528z"/></g><g><path d="M93.548,101.525l-1.4-1.428c0.127-0.124,12.643-12.418,14.88-17.39c2.023-4.496,2.444-7.812,2.507-8.413l-0.523-3.673      l0.605-3.947l1.941-1.384l1.644-3.76l0.248-2.958l-0.004-2.517l-0.258-3.038l1.992-0.168l0.262,3.122l0.004,2.685l-0.279,3.372      l-1.997,4.568l-1.703,1.216l-0.434,2.82l0.514,3.602l-0.008,0.106c-0.011,0.156-0.3,3.882-2.687,9.187      C106.46,88.842,94.073,101.01,93.548,101.525z"/></g><g><polygon points="72.091,96.344 71.974,94.348 80.483,93.848 84.159,90.698 101.093,90.985 101.06,92.985 84.884,92.709       81.274,95.805     "/></g><g><rect x="102.169" y="62.667" width="11.041" height="2"/></g><g><rect x="107.086" y="57.5" width="7.374" height="2"/></g><g><rect x="96.419" y="68.131" width="13.733" height="2"/></g><g><rect x="90.252" y="73.53" width="20.096" height="2"/></g><g><rect x="83.252" y="79.385" width="25.73" height="2"/></g><g><rect x="74.439" y="85.434" width="31.225" height="2"/></g></g><g><g><path d="M398.799,93.915c-11.743-5.308-19.821-11.403-24.16-14.679c-1.319-0.996-2.382-1.797-2.957-2.123      c-0.798,0.29-2.968,2.771-4.764,5.464l-0.568,0.853l-4.923-3.46l-9.751-7.261l-25.207-14.783      c-8.734,9.62-17.64,18.097-26.479,25.202c-1.216,0.978-2.42,1.921-3.609,2.83l-1.215-1.59c1.178-0.899,2.368-1.831,3.57-2.799      c8.941-7.188,17.956-15.797,26.795-25.588l0.546-0.604l26.749,15.695l9.773,7.277l3.23,2.271      c2.966-4.271,5.187-6.079,6.619-5.363c0.701,0.351,1.772,1.159,3.394,2.383c4.277,3.229,12.239,9.237,23.78,14.453      L398.799,93.915z"/></g><g><path d="M311.062,101.425l-1.447-1.381c5.661-5.938,9.359-10.497,10.413-12.838c2.023-4.495,2.444-7.812,2.507-8.412      l-0.523-3.673l0.605-3.947l1.941-1.384l1.644-3.76l0.248-2.958l-0.004-2.517l-0.258-3.038l1.992-0.168l0.262,3.122l0.004,2.685      l-0.279,3.372l-1.997,4.568l-1.703,1.216l-0.434,2.82l0.514,3.602l-0.008,0.106c-0.011,0.156-0.3,3.882-2.687,9.187      C320.384,91.286,315.174,97.112,311.062,101.425z"/></g><g><rect x="315.168" y="67.167" width="11.041" height="2"/></g><g><rect x="320.086" y="62" width="7.373" height="2"/></g><g><rect x="309.418" y="72.631" width="13.734" height="2"/></g><g><rect x="303.252" y="78.03" width="20.096" height="2"/></g><g><rect x="296.252" y="83.885" width="25.73" height="2"/></g><g><rect x="300.67" y="89.934" width="17.994" height="2"/></g></g><g><rect x="26.25" y="112.625" transform="matrix(1 0.0065 -0.0065 1 0.7398 -0.3636)" width="60.092" height="2"/></g><g><polygon points="110.208,114.715 109.313,112.926 114.6,110.283 122.172,101.577 125.088,94.651 131.429,94.651 135.383,96.456      142.342,102.458 149.385,106.38 156.537,111.649 275.252,111.649 275.252,113.649 155.88,113.649 148.25,108.028      141.113,104.039 134.188,98.066 131.005,96.651 126.416,96.651 123.786,102.768 115.85,111.894    "/></g><g><path d="M387.112,114.533l-13.093-7.057l-5.334-3.667l-2.622-1.966l-9.787-4.735c-3.052,1.641-16.627,8.877-19.232,9.203     c-2.68,0.333-11.579-5.795-14.917-8.185l-1.742,0.747l-2.506,1.566l-2.087,2.086l-2.564,0.855l-4.905-1.888l-24.199-28.509     h-0.795l-17.521,17.166l-3.464,2.31l-7.883-3.613c-2.714,2.606-15.569,14.304-27.708,14.304l-23.011-0.25l-22.433-2.349     l-5.979-2.776l-2.113-5.38l-5.325-1.546l-3.518,0.826l-2.518-1.888l-4.635-0.741l-3.411-0.729l-0.938-4.253l-0.583-5.251     l-0.189-1.128l1.973-0.33l0.195,1.17l0.2,1.604l0.387,3.669l0.629,2.831l2.104,0.451l5.072,0.81l2.166,1.624l3.117-0.732     l6.774,1.966l2.18,5.55l4.95,2.298l22.009,2.31l22.906,0.244c12.535,0,26.639-14.062,26.779-14.203l0.492-0.496l8.127,3.726     l2.458-1.639l17.893-17.554h2.537l24.469,28.825l3.759,1.446l1.436-0.479l2.01-1.974l2.804-1.738l2.853-1.224l0.46,0.332     c5.617,4.058,12.529,8.284,13.958,8.152c1.807-0.227,12.602-5.776,18.98-9.222l0.45-0.243l10.959,5.323l2.667,2l5.255,3.612     l12.952,6.974L387.112,114.533z"/></g></g><g><rect x="24.918" y="155.651" width="377.668" height="2"/></g><g><g><path d="M224.73,66.017c-6.527,0-11.837-5.31-11.837-11.837c0-6.526,5.31-11.836,11.837-11.836     c6.526,0,11.836,5.31,11.836,11.836C236.566,60.708,231.257,66.017,224.73,66.017z M224.73,44.344     c-5.424,0-9.837,4.412-9.837,9.836s4.413,9.837,9.837,9.837s9.836-4.413,9.836-9.837S230.154,44.344,224.73,44.344z"/></g><g><rect x="224.105" y="18.03" width="2" height="25.389"/></g><g><rect x="223.771" y="65.362" width="2" height="22.753"/></g><g><rect x="210.055" y="59.523" transform="matrix(0.7344 0.6787 -0.6787 0.7344 102.3453 -125.1349)" width="2" height="17.349"/></g><g><rect x="229.798" y="67.114" transform="matrix(0.6786 0.7345 -0.7345 0.6786 126.6646 -153.2629)" width="17.349" height="2"/></g><g><rect x="195.351" y="35.648" transform="matrix(0.6894 0.7244 -0.7244 0.6894 91.347 -139.7287)" width="26.499" height="2"/></g><g><rect x="240.85" y="23.399" transform="matrix(0.7245 0.6893 -0.6893 0.7245 91.9011 -156.6129)" width="2" height="26.499"/></g><g><rect x="182.128" y="52.614" width="31.581" height="2"/></g><g><rect x="235.752" y="52.739" width="31.582" height="2"/></g></g><g><g><path d="M290.467,156.725l-1.5-0.012l0.096-12.787c-0.242,0.358-0.521,0.659-0.839,0.867l-0.818-1.258     c0.868-0.564,1.518-3.193,1.7-4.88l1.496,0.087L290.467,156.725z"/></g><g><path d="M292.058,144.946c-0.256-0.086-2.519-0.984-2.953-6.146l1.494-0.127c0.35,4.144,1.941,4.851,1.957,4.857L292.058,144.946     z"/></g><g><path d="M293.347,149.696c-1.442-0.481-4.186-2.296-4.245-5.722l1.5-0.025c0.057,3.231,3.188,4.313,3.22,4.323L293.347,149.696z"/></g><g><path d="M286.356,149.832l-0.475-1.424l0.237,0.712l-0.239-0.711c0.129-0.044,3.164-1.116,3.222-4.324l1.5,0.027     C290.54,147.538,287.798,149.351,286.356,149.832z"/></g><g><path d="M285.312,153.841l-0.422-1.439c0.039-0.012,3.91-1.186,4.079-3.805l1.496,0.096     C290.229,152.363,285.513,153.783,285.312,153.841z"/></g><g><path d="M294.188,154.044c-0.201-0.059-4.918-1.477-5.153-5.148l1.496-0.096c0.169,2.621,4.039,3.793,4.078,3.805     L294.188,154.044z"/></g></g><g><g><path d="M61.602,156.862l-1.5-0.012l0.096-12.786c-0.242,0.357-0.52,0.658-0.838,0.865l-0.818-1.256     c0.87-0.567,1.518-3.195,1.699-4.88l1.496,0.086L61.602,156.862z"/></g><g><path d="M63.192,145.082c-0.256-0.086-2.518-0.984-2.953-6.145l1.494-0.127c0.351,4.143,1.941,4.85,1.958,4.856L63.192,145.082z"/></g><g><path d="M64.482,149.832c-0.17-0.058-4.17-1.44-4.246-5.72l1.5-0.027c0.058,3.231,3.189,4.313,3.221,4.323L64.482,149.832z"/></g><g><path d="M57.492,149.968l-0.478-1.423c0.13-0.044,3.164-1.117,3.222-4.325l1.5,0.027     C61.659,148.529,57.662,149.911,57.492,149.968z"/></g><g><path d="M56.447,153.978l-0.423-1.439c0.039-0.012,3.91-1.187,4.079-3.806l1.496,0.096     C61.364,152.498,56.647,153.919,56.447,153.978z"/></g><g><path d="M65.323,154.181c-0.201-0.059-4.918-1.479-5.153-5.149l1.496-0.096c0.169,2.62,4.04,3.794,4.079,3.806L65.323,154.181z"/></g></g><g><g><path d="M308.275,157.528l-1.5-0.012l0.172-22.787c-0.527,1.262-1.217,2.372-2.112,2.955l-0.818-1.256     c1.842-1.2,2.778-6.399,2.983-8.302l1.496,0.087L308.275,157.528z"/></g><g><path d="M311.491,137.88c-0.154-0.052-3.797-1.359-4.492-9.609l1.494-0.127c0.603,7.141,3.458,8.307,3.487,8.318L311.491,137.88z     "/></g><g><path d="M313.595,145.625c-0.064-0.022-6.481-2.239-6.599-8.886l1.5-0.027c0.099,5.572,5.352,7.415,5.575,7.49L313.595,145.625z"/></g><g><path d="M301.899,145.845l-0.476-1.423c0.223-0.075,5.471-1.914,5.572-7.49l1.5,0.027     C308.374,143.61,301.964,145.823,301.899,145.845z"/></g><g><path d="M300.213,152.378l-0.422-1.439c0.066-0.02,6.689-2.022,6.986-6.628l1.496,0.096     C307.91,150.062,300.526,152.287,300.213,152.378z"/></g><g><path d="M314.948,152.71c-0.314-0.092-7.698-2.313-8.063-7.972l1.496-0.098c0.299,4.622,6.921,6.61,6.987,6.63L314.948,152.71z"/></g></g></g><text x="0" y="207.374" fill="#000000" font-size="5px" font-weight="bold" font-family="'Helvetica Neue', Helvetica, Arial-Unicode, Arial, Sans-serif">Created by Gabriela Sassi Freitas</text><text x="0" y="212.374" fill="#000000" font-size="5px" font-weight="bold" font-family="'Helvetica Neue', Helvetica, Arial-Unicode, Arial, Sans-serif">from the Noun Project</text></svg>