<svg xmlns="http://www.w3.org/2000/svg" xmlns:xlink="http://www.w3.org/1999/xlink" version="1.1" x="0px" y="0px" viewBox="0 0 100 125" enable-background="new 0 0 100 100" xml:space="preserve"><path fill="none" d="M27.8,47.5c0,0-0.1-0.1-0.1-0.1s-0.1,0-0.1,0.1l-20,23.8c-0.1,0.1-0.1,0.3,0,0.4c0,0,0.1,0.1,0.1,0.1h18  l11.1-13.7L27.8,47.5z"/><path fill="#000000" d="M38.1,42.7c-4.3,0-7.7-3.5-7.7-7.7s3.5-7.7,7.7-7.7s7.7,3.5,7.7,7.7S42.4,42.7,38.1,42.7z M38.1,28.2  c-3.7,0-6.8,3-6.8,6.8s3,6.8,6.8,6.8s6.8-3,6.8-6.8S41.9,28.2,38.1,28.2z"/><path fill="#000000" d="M93.1,70.5L60.2,31.3c-0.5-0.6-1.3-0.6-1.8,0L37.3,57.4l-8.8-10.5c-0.4-0.5-1.3-0.5-1.7,0l-20,23.8  c-0.3,0.4-0.4,1-0.2,1.5c0.2,0.4,0.6,0.7,1,0.7h17.2h67.4c0.5,0,0.9-0.3,1.1-0.7C93.6,71.5,93.5,70.9,93.1,70.5z M59.2,31.9  c0.1-0.1,0.2-0.1,0.3,0l6.7,8l-0.6,0.7l-0.6-0.7c-0.4-0.4-1-0.4-1.4,0l-0.5,0.7L62.5,40c-0.2-0.2-0.4-0.3-0.7-0.3  c-0.3,0-0.5,0.1-0.7,0.3l-0.5,0.7l-0.6-0.7c-0.2-0.2-0.4-0.3-0.7-0.3c0,0,0,0,0,0c-0.3,0-0.5,0.1-0.7,0.3l-0.5,0.7L57.5,40  c-0.2-0.2-0.4-0.3-0.7-0.3c0,0,0,0,0,0c-0.3,0-0.5,0.1-0.7,0.3l-0.5,0.7L55,40c-0.2-0.2-0.4-0.3-0.7-0.3c0,0,0,0,0,0  c-0.3,0-0.5,0.1-0.7,0.3l-0.4,0.5l-0.5-0.6L59.2,31.9z M27.6,47.5c0,0,0.1-0.1,0.1-0.1s0.1,0,0.1,0.1l3.9,4.6l-0.6,0.7l-0.6-0.7  c-0.4-0.4-1-0.4-1.4,0l-0.5,0.7l-0.6-0.7c-0.2-0.2-0.4-0.3-0.7-0.3c-0.3,0-0.5,0.1-0.7,0.3l-0.5,0.7l-0.5-0.7  c-0.2-0.2-0.4-0.3-0.7-0.3c0,0,0,0,0,0c-0.3,0-0.5,0.1-0.7,0.3l-0.3,0.5l-0.4-0.5L27.6,47.5z M7.7,71.8c-0.1,0-0.1-0.1-0.1-0.1  c-0.1-0.1-0.1-0.3,0-0.4L22.9,53l0.3,0.3c0.4,0.4,1,0.4,1.4,0l0.3-0.5l0.5,0.7c0.2,0.2,0.4,0.3,0.7,0.3c0,0,0,0,0,0  c0.3,0,0.5-0.1,0.7-0.3l0.5-0.7l0.6,0.7c0.2,0.2,0.4,0.3,0.7,0.3c0.3,0,0.5-0.1,0.7-0.3l0.5-0.7l0.6,0.7c0.2,0.2,0.4,0.3,0.7,0.3  c0,0,0,0,0,0c0.3,0,0.5-0.1,0.7-0.3l0.5-0.6l4.4,5.3L25.7,71.8H7.7z M92.5,71.6c0,0.1-0.1,0.2-0.2,0.2H26.9l10.5-12.9l0.6-0.8  l14.1-17.4l0.4,0.5c0.2,0.2,0.4,0.3,0.7,0.3c0.3,0,0.5-0.1,0.7-0.3l0.4-0.5l0.6,0.7c0.4,0.4,1,0.4,1.4,0l0.5-0.7l0.6,0.7  c0.2,0.2,0.4,0.3,0.7,0.3c0.3,0,0.5-0.1,0.7-0.3l0.5-0.7l0.6,0.7c0.4,0.4,1,0.4,1.4,0l0.5-0.7l0.6,0.7c0.4,0.4,1.1,0.4,1.4,0  l0.5-0.7l0.6,0.7c0.2,0.2,0.4,0.3,0.7,0.3c0.2,0,0.5-0.1,0.7-0.3l0.5-0.6l25.6,30.4C92.5,71.3,92.5,71.5,92.5,71.6z"/><text x="0" y="115" fill="#000000" font-size="5px" font-weight="bold" font-family="'Helvetica Neue', Helvetica, Arial-Unicode, Arial, Sans-serif">Created by Patrick Torres</text><text x="0" y="120" fill="#000000" font-size="5px" font-weight="bold" font-family="'Helvetica Neue', Helvetica, Arial-Unicode, Arial, Sans-serif">from the Noun Project</text></svg>